<mxfile host="app.diagrams.net" modified="2023-11-28T07:14:01.406Z" agent="Mozilla/5.0 (Windows NT 10.0; Win64; x64) AppleWebKit/537.36 (KHTML, like Gecko) Chrome/116.0.5845.686 YaBrowser/23.9.5.686 Yowser/2.5 Safari/537.36" etag="2LHRwp-iHQFTk-8gFsUH" version="22.1.4" type="device">
  <diagram name="Страница — 1" id="HCbRCj7tsx-rH6w6_Y33">
    <mxGraphModel dx="1313" dy="1079" grid="0" gridSize="10" guides="1" tooltips="1" connect="1" arrows="1" fold="1" page="0" pageScale="1" pageWidth="827" pageHeight="1169" math="0" shadow="0">
      <root>
        <mxCell id="0" />
        <mxCell id="1" parent="0" />
        <mxCell id="bARLbPdEn74Y04hdNGSF-25" style="edgeStyle=orthogonalEdgeStyle;rounded=0;orthogonalLoop=1;jettySize=auto;html=1;entryX=0.5;entryY=0;entryDx=0;entryDy=0;" edge="1" parent="1" source="CXtL1Gmkl7e-Ynch0sAf-1" target="CXtL1Gmkl7e-Ynch0sAf-21">
          <mxGeometry relative="1" as="geometry" />
        </mxCell>
        <mxCell id="CXtL1Gmkl7e-Ynch0sAf-1" value="Car" style="swimlane;fontStyle=0;childLayout=stackLayout;horizontal=1;startSize=30;horizontalStack=0;resizeParent=1;resizeParentMax=0;resizeLast=0;collapsible=1;marginBottom=0;whiteSpace=wrap;html=1;" parent="1" vertex="1">
          <mxGeometry x="25" y="160" width="270" height="150" as="geometry" />
        </mxCell>
        <mxCell id="CXtL1Gmkl7e-Ynch0sAf-2" value="+ carId: int" style="text;strokeColor=none;fillColor=none;align=left;verticalAlign=middle;spacingLeft=4;spacingRight=4;overflow=hidden;points=[[0,0.5],[1,0.5]];portConstraint=eastwest;rotatable=0;whiteSpace=wrap;html=1;" parent="CXtL1Gmkl7e-Ynch0sAf-1" vertex="1">
          <mxGeometry y="30" width="270" height="30" as="geometry" />
        </mxCell>
        <mxCell id="CXtL1Gmkl7e-Ynch0sAf-3" value="+&amp;nbsp;characteristics: string" style="text;strokeColor=none;fillColor=none;align=left;verticalAlign=middle;spacingLeft=4;spacingRight=4;overflow=hidden;points=[[0,0.5],[1,0.5]];portConstraint=eastwest;rotatable=0;whiteSpace=wrap;html=1;" parent="CXtL1Gmkl7e-Ynch0sAf-1" vertex="1">
          <mxGeometry y="60" width="270" height="30" as="geometry" />
        </mxCell>
        <mxCell id="CXtL1Gmkl7e-Ynch0sAf-4" value="+&amp;nbsp;price: double" style="text;strokeColor=none;fillColor=none;align=left;verticalAlign=middle;spacingLeft=4;spacingRight=4;overflow=hidden;points=[[0,0.5],[1,0.5]];portConstraint=eastwest;rotatable=0;whiteSpace=wrap;html=1;" parent="CXtL1Gmkl7e-Ynch0sAf-1" vertex="1">
          <mxGeometry y="90" width="270" height="30" as="geometry" />
        </mxCell>
        <mxCell id="bARLbPdEn74Y04hdNGSF-24" value="+&amp;nbsp;supplierId: int" style="text;strokeColor=none;fillColor=none;align=left;verticalAlign=middle;spacingLeft=4;spacingRight=4;overflow=hidden;points=[[0,0.5],[1,0.5]];portConstraint=eastwest;rotatable=0;whiteSpace=wrap;html=1;" vertex="1" parent="CXtL1Gmkl7e-Ynch0sAf-1">
          <mxGeometry y="120" width="270" height="30" as="geometry" />
        </mxCell>
        <mxCell id="CXtL1Gmkl7e-Ynch0sAf-35" style="edgeStyle=orthogonalEdgeStyle;rounded=0;orthogonalLoop=1;jettySize=auto;html=1;entryX=1;entryY=0.5;entryDx=0;entryDy=0;startArrow=classic;startFill=1;endArrow=none;endFill=0;" parent="1" source="CXtL1Gmkl7e-Ynch0sAf-9" target="CXtL1Gmkl7e-Ynch0sAf-29" edge="1">
          <mxGeometry relative="1" as="geometry">
            <Array as="points">
              <mxPoint x="700" y="235" />
              <mxPoint x="700" y="235" />
            </Array>
          </mxGeometry>
        </mxCell>
        <mxCell id="bARLbPdEn74Y04hdNGSF-12" style="edgeStyle=orthogonalEdgeStyle;rounded=0;orthogonalLoop=1;jettySize=auto;html=1;entryX=0.495;entryY=0.974;entryDx=0;entryDy=0;entryPerimeter=0;dashed=1;" edge="1" parent="1" source="CXtL1Gmkl7e-Ynch0sAf-9" target="bARLbPdEn74Y04hdNGSF-19">
          <mxGeometry relative="1" as="geometry">
            <mxPoint x="860" y="97.20001220703125" as="targetPoint" />
          </mxGeometry>
        </mxCell>
        <mxCell id="CXtL1Gmkl7e-Ynch0sAf-9" value="Client" style="swimlane;fontStyle=0;childLayout=stackLayout;horizontal=1;startSize=30;horizontalStack=0;resizeParent=1;resizeParentMax=0;resizeLast=0;collapsible=1;marginBottom=0;whiteSpace=wrap;html=1;" parent="1" vertex="1">
          <mxGeometry x="730" y="160" width="260" height="120" as="geometry" />
        </mxCell>
        <mxCell id="CXtL1Gmkl7e-Ynch0sAf-10" value="+ clientId: int" style="text;strokeColor=none;fillColor=none;align=left;verticalAlign=middle;spacingLeft=4;spacingRight=4;overflow=hidden;points=[[0,0.5],[1,0.5]];portConstraint=eastwest;rotatable=0;whiteSpace=wrap;html=1;" parent="CXtL1Gmkl7e-Ynch0sAf-9" vertex="1">
          <mxGeometry y="30" width="260" height="30" as="geometry" />
        </mxCell>
        <mxCell id="CXtL1Gmkl7e-Ynch0sAf-11" value="+&amp;nbsp;name: string" style="text;strokeColor=none;fillColor=none;align=left;verticalAlign=middle;spacingLeft=4;spacingRight=4;overflow=hidden;points=[[0,0.5],[1,0.5]];portConstraint=eastwest;rotatable=0;whiteSpace=wrap;html=1;" parent="CXtL1Gmkl7e-Ynch0sAf-9" vertex="1">
          <mxGeometry y="60" width="260" height="30" as="geometry" />
        </mxCell>
        <mxCell id="CXtL1Gmkl7e-Ynch0sAf-12" value="+&amp;nbsp;email: string" style="text;strokeColor=none;fillColor=none;align=left;verticalAlign=middle;spacingLeft=4;spacingRight=4;overflow=hidden;points=[[0,0.5],[1,0.5]];portConstraint=eastwest;rotatable=0;whiteSpace=wrap;html=1;" parent="CXtL1Gmkl7e-Ynch0sAf-9" vertex="1">
          <mxGeometry y="90" width="260" height="30" as="geometry" />
        </mxCell>
        <mxCell id="CXtL1Gmkl7e-Ynch0sAf-21" value="Supplier" style="swimlane;fontStyle=0;childLayout=stackLayout;horizontal=1;startSize=30;horizontalStack=0;resizeParent=1;resizeParentMax=0;resizeLast=0;collapsible=1;marginBottom=0;whiteSpace=wrap;html=1;" parent="1" vertex="1">
          <mxGeometry x="25" y="416" width="270" height="120" as="geometry" />
        </mxCell>
        <mxCell id="CXtL1Gmkl7e-Ynch0sAf-22" value="+ supplierId: int" style="text;strokeColor=none;fillColor=none;align=left;verticalAlign=middle;spacingLeft=4;spacingRight=4;overflow=hidden;points=[[0,0.5],[1,0.5]];portConstraint=eastwest;rotatable=0;whiteSpace=wrap;html=1;" parent="CXtL1Gmkl7e-Ynch0sAf-21" vertex="1">
          <mxGeometry y="30" width="270" height="30" as="geometry" />
        </mxCell>
        <mxCell id="CXtL1Gmkl7e-Ynch0sAf-23" value="+ name: string" style="text;strokeColor=none;fillColor=none;align=left;verticalAlign=middle;spacingLeft=4;spacingRight=4;overflow=hidden;points=[[0,0.5],[1,0.5]];portConstraint=eastwest;rotatable=0;whiteSpace=wrap;html=1;" parent="CXtL1Gmkl7e-Ynch0sAf-21" vertex="1">
          <mxGeometry y="60" width="270" height="30" as="geometry" />
        </mxCell>
        <mxCell id="CXtL1Gmkl7e-Ynch0sAf-25" value="+ Cars List&lt;font size=&quot;1&quot; face=&quot;Söhne, ui-sans-serif, system-ui, -apple-system, Segoe UI, Roboto, Ubuntu, Cantarell, Noto Sans, sans-serif, Helvetica Neue, Arial, Apple Color Emoji, Segoe UI Emoji, Segoe UI Symbol, Noto Color Emoji&quot; color=&quot;#374151&quot;&gt;&lt;span style=&quot;background-color: rgb(247, 247, 248); font-size: 14px;&quot;&gt;&amp;lt;Car&amp;gt;&lt;/span&gt;&lt;/font&gt;" style="text;strokeColor=none;fillColor=none;align=left;verticalAlign=middle;spacingLeft=4;spacingRight=4;overflow=hidden;points=[[0,0.5],[1,0.5]];portConstraint=eastwest;rotatable=0;whiteSpace=wrap;html=1;" parent="CXtL1Gmkl7e-Ynch0sAf-21" vertex="1">
          <mxGeometry y="90" width="270" height="30" as="geometry" />
        </mxCell>
        <mxCell id="CXtL1Gmkl7e-Ynch0sAf-27" value="Order" style="swimlane;fontStyle=0;childLayout=stackLayout;horizontal=1;startSize=30;horizontalStack=0;resizeParent=1;resizeParentMax=0;resizeLast=0;collapsible=1;marginBottom=0;whiteSpace=wrap;html=1;" parent="1" vertex="1">
          <mxGeometry x="385" y="161" width="263" height="120" as="geometry" />
        </mxCell>
        <mxCell id="CXtL1Gmkl7e-Ynch0sAf-28" value="+ orderId: int" style="text;strokeColor=none;fillColor=none;align=left;verticalAlign=middle;spacingLeft=4;spacingRight=4;overflow=hidden;points=[[0,0.5],[1,0.5]];portConstraint=eastwest;rotatable=0;whiteSpace=wrap;html=1;" parent="CXtL1Gmkl7e-Ynch0sAf-27" vertex="1">
          <mxGeometry y="30" width="263" height="30" as="geometry" />
        </mxCell>
        <mxCell id="CXtL1Gmkl7e-Ynch0sAf-29" value="+ carId: int" style="text;strokeColor=none;fillColor=none;align=left;verticalAlign=middle;spacingLeft=4;spacingRight=4;overflow=hidden;points=[[0,0.5],[1,0.5]];portConstraint=eastwest;rotatable=0;whiteSpace=wrap;html=1;" parent="CXtL1Gmkl7e-Ynch0sAf-27" vertex="1">
          <mxGeometry y="60" width="263" height="30" as="geometry" />
        </mxCell>
        <mxCell id="CXtL1Gmkl7e-Ynch0sAf-30" value="+ clientId: int" style="text;strokeColor=none;fillColor=none;align=left;verticalAlign=middle;spacingLeft=4;spacingRight=4;overflow=hidden;points=[[0,0.5],[1,0.5]];portConstraint=eastwest;rotatable=0;whiteSpace=wrap;html=1;" parent="CXtL1Gmkl7e-Ynch0sAf-27" vertex="1">
          <mxGeometry y="90" width="263" height="30" as="geometry" />
        </mxCell>
        <mxCell id="CXtL1Gmkl7e-Ynch0sAf-31" style="edgeStyle=orthogonalEdgeStyle;rounded=0;orthogonalLoop=1;jettySize=auto;html=1;entryX=0;entryY=0.5;entryDx=0;entryDy=0;exitX=1;exitY=0.5;exitDx=0;exitDy=0;startArrow=classic;startFill=1;endArrow=none;endFill=0;" parent="1" source="CXtL1Gmkl7e-Ynch0sAf-3" target="CXtL1Gmkl7e-Ynch0sAf-29" edge="1">
          <mxGeometry relative="1" as="geometry">
            <Array as="points" />
          </mxGeometry>
        </mxCell>
        <mxCell id="CXtL1Gmkl7e-Ynch0sAf-39" value="&lt;b&gt;1&lt;/b&gt;" style="text;html=1;align=center;verticalAlign=middle;resizable=0;points=[];autosize=1;strokeColor=none;fillColor=none;" parent="1" vertex="1">
          <mxGeometry x="700" y="205" width="30" height="30" as="geometry" />
        </mxCell>
        <mxCell id="CXtL1Gmkl7e-Ynch0sAf-40" value="&lt;b&gt;...&lt;/b&gt;" style="text;html=1;align=center;verticalAlign=middle;resizable=0;points=[];autosize=1;strokeColor=none;fillColor=none;" parent="1" vertex="1">
          <mxGeometry x="648" y="205" width="30" height="30" as="geometry" />
        </mxCell>
        <mxCell id="CXtL1Gmkl7e-Ynch0sAf-41" value="&lt;b&gt;1&lt;/b&gt;" style="text;html=1;align=center;verticalAlign=middle;resizable=0;points=[];autosize=1;strokeColor=none;fillColor=none;" parent="1" vertex="1">
          <mxGeometry x="355" y="205" width="30" height="30" as="geometry" />
        </mxCell>
        <mxCell id="CXtL1Gmkl7e-Ynch0sAf-42" value="&lt;b&gt;1&lt;/b&gt;" style="text;html=1;align=center;verticalAlign=middle;resizable=0;points=[];autosize=1;strokeColor=none;fillColor=none;" parent="1" vertex="1">
          <mxGeometry x="296" y="205" width="30" height="30" as="geometry" />
        </mxCell>
        <mxCell id="bARLbPdEn74Y04hdNGSF-1" value="Manager" style="swimlane;fontStyle=0;childLayout=stackLayout;horizontal=1;startSize=30;horizontalStack=0;resizeParent=1;resizeParentMax=0;resizeLast=0;collapsible=1;marginBottom=0;whiteSpace=wrap;html=1;" vertex="1" parent="1">
          <mxGeometry x="387" y="394" width="263" height="120" as="geometry" />
        </mxCell>
        <mxCell id="bARLbPdEn74Y04hdNGSF-2" value="+ managerId: int" style="text;strokeColor=none;fillColor=none;align=left;verticalAlign=middle;spacingLeft=4;spacingRight=4;overflow=hidden;points=[[0,0.5],[1,0.5]];portConstraint=eastwest;rotatable=0;whiteSpace=wrap;html=1;" vertex="1" parent="bARLbPdEn74Y04hdNGSF-1">
          <mxGeometry y="30" width="263" height="30" as="geometry" />
        </mxCell>
        <mxCell id="bARLbPdEn74Y04hdNGSF-3" value="+&amp;nbsp;name: string" style="text;strokeColor=none;fillColor=none;align=left;verticalAlign=middle;spacingLeft=4;spacingRight=4;overflow=hidden;points=[[0,0.5],[1,0.5]];portConstraint=eastwest;rotatable=0;whiteSpace=wrap;html=1;" vertex="1" parent="bARLbPdEn74Y04hdNGSF-1">
          <mxGeometry y="60" width="263" height="30" as="geometry" />
        </mxCell>
        <mxCell id="bARLbPdEn74Y04hdNGSF-4" value="+&amp;nbsp;email: string" style="text;strokeColor=none;fillColor=none;align=left;verticalAlign=middle;spacingLeft=4;spacingRight=4;overflow=hidden;points=[[0,0.5],[1,0.5]];portConstraint=eastwest;rotatable=0;whiteSpace=wrap;html=1;" vertex="1" parent="bARLbPdEn74Y04hdNGSF-1">
          <mxGeometry y="90" width="263" height="30" as="geometry" />
        </mxCell>
        <mxCell id="bARLbPdEn74Y04hdNGSF-6" value="&amp;lt;&amp;lt;interface&amp;gt;&amp;gt;&lt;br&gt;ClientEvent" style="swimlane;fontStyle=0;childLayout=stackLayout;horizontal=1;startSize=39;horizontalStack=0;resizeParent=1;resizeParentMax=0;resizeLast=0;collapsible=1;marginBottom=0;whiteSpace=wrap;html=1;" vertex="1" parent="1">
          <mxGeometry x="731" y="-9" width="260" height="115" as="geometry" />
        </mxCell>
        <mxCell id="bARLbPdEn74Y04hdNGSF-10" value="+ catalogDisplay() : void" style="text;strokeColor=none;fillColor=none;align=left;verticalAlign=middle;spacingLeft=4;spacingRight=4;overflow=hidden;points=[[0,0.5],[1,0.5]];portConstraint=eastwest;rotatable=0;whiteSpace=wrap;html=1;" vertex="1" parent="bARLbPdEn74Y04hdNGSF-6">
          <mxGeometry y="39" width="260" height="38" as="geometry" />
        </mxCell>
        <mxCell id="bARLbPdEn74Y04hdNGSF-19" value="+ makeOrder(carId: int): void" style="text;strokeColor=none;fillColor=none;align=left;verticalAlign=middle;spacingLeft=4;spacingRight=4;overflow=hidden;points=[[0,0.5],[1,0.5]];portConstraint=eastwest;rotatable=0;whiteSpace=wrap;html=1;" vertex="1" parent="bARLbPdEn74Y04hdNGSF-6">
          <mxGeometry y="77" width="260" height="38" as="geometry" />
        </mxCell>
        <mxCell id="bARLbPdEn74Y04hdNGSF-14" value="&amp;lt;&amp;lt;interface&amp;gt;&amp;gt;&lt;br&gt;ManagerEvent" style="swimlane;fontStyle=0;childLayout=stackLayout;horizontal=1;startSize=36;horizontalStack=0;resizeParent=1;resizeParentMax=0;resizeLast=0;collapsible=1;marginBottom=0;whiteSpace=wrap;html=1;" vertex="1" parent="1">
          <mxGeometry x="756" y="335" width="260" height="228" as="geometry" />
        </mxCell>
        <mxCell id="bARLbPdEn74Y04hdNGSF-15" value="+ clientNotification(clientId, orderId) : void" style="text;strokeColor=none;fillColor=none;align=left;verticalAlign=middle;spacingLeft=4;spacingRight=4;overflow=hidden;points=[[0,0.5],[1,0.5]];portConstraint=eastwest;rotatable=0;whiteSpace=wrap;html=1;" vertex="1" parent="bARLbPdEn74Y04hdNGSF-14">
          <mxGeometry y="36" width="260" height="32" as="geometry" />
        </mxCell>
        <mxCell id="bARLbPdEn74Y04hdNGSF-16" value="+ deleteOrder(orderId: int): void" style="text;strokeColor=none;fillColor=none;align=left;verticalAlign=middle;spacingLeft=4;spacingRight=4;overflow=hidden;points=[[0,0.5],[1,0.5]];portConstraint=eastwest;rotatable=0;whiteSpace=wrap;html=1;" vertex="1" parent="bARLbPdEn74Y04hdNGSF-14">
          <mxGeometry y="68" width="260" height="32" as="geometry" />
        </mxCell>
        <mxCell id="bARLbPdEn74Y04hdNGSF-17" value="+ approveOrder(orderId: int): void" style="text;strokeColor=none;fillColor=none;align=left;verticalAlign=middle;spacingLeft=4;spacingRight=4;overflow=hidden;points=[[0,0.5],[1,0.5]];portConstraint=eastwest;rotatable=0;whiteSpace=wrap;html=1;" vertex="1" parent="bARLbPdEn74Y04hdNGSF-14">
          <mxGeometry y="100" width="260" height="32" as="geometry" />
        </mxCell>
        <mxCell id="bARLbPdEn74Y04hdNGSF-20" value="+ addCar(car List&amp;lt;Car&amp;gt;, supplierId int ): void" style="text;strokeColor=none;fillColor=none;align=left;verticalAlign=middle;spacingLeft=4;spacingRight=4;overflow=hidden;points=[[0,0.5],[1,0.5]];portConstraint=eastwest;rotatable=0;whiteSpace=wrap;html=1;" vertex="1" parent="bARLbPdEn74Y04hdNGSF-14">
          <mxGeometry y="132" width="260" height="32" as="geometry" />
        </mxCell>
        <mxCell id="bARLbPdEn74Y04hdNGSF-21" value="+ deleteCar(carId: int): void" style="text;strokeColor=none;fillColor=none;align=left;verticalAlign=middle;spacingLeft=4;spacingRight=4;overflow=hidden;points=[[0,0.5],[1,0.5]];portConstraint=eastwest;rotatable=0;whiteSpace=wrap;html=1;" vertex="1" parent="bARLbPdEn74Y04hdNGSF-14">
          <mxGeometry y="164" width="260" height="32" as="geometry" />
        </mxCell>
        <mxCell id="bARLbPdEn74Y04hdNGSF-22" value="+ editCar(carId: int): void" style="text;strokeColor=none;fillColor=none;align=left;verticalAlign=middle;spacingLeft=4;spacingRight=4;overflow=hidden;points=[[0,0.5],[1,0.5]];portConstraint=eastwest;rotatable=0;whiteSpace=wrap;html=1;" vertex="1" parent="bARLbPdEn74Y04hdNGSF-14">
          <mxGeometry y="196" width="260" height="32" as="geometry" />
        </mxCell>
        <mxCell id="bARLbPdEn74Y04hdNGSF-26" value="&lt;b&gt;1&lt;/b&gt;" style="text;html=1;align=center;verticalAlign=middle;resizable=0;points=[];autosize=1;strokeColor=none;fillColor=none;" vertex="1" parent="1">
          <mxGeometry x="160" y="382" width="30" height="30" as="geometry" />
        </mxCell>
        <mxCell id="bARLbPdEn74Y04hdNGSF-27" value="&lt;b&gt;...&lt;/b&gt;" style="text;html=1;align=center;verticalAlign=middle;resizable=0;points=[];autosize=1;strokeColor=none;fillColor=none;" vertex="1" parent="1">
          <mxGeometry x="160" y="310" width="30" height="30" as="geometry" />
        </mxCell>
        <mxCell id="bARLbPdEn74Y04hdNGSF-32" value="" style="edgeStyle=orthogonalEdgeStyle;rounded=0;orthogonalLoop=1;jettySize=auto;html=1;entryX=0.008;entryY=0.07;entryDx=0;entryDy=0;entryPerimeter=0;dashed=1;" edge="1" parent="1" source="bARLbPdEn74Y04hdNGSF-3" target="bARLbPdEn74Y04hdNGSF-20">
          <mxGeometry relative="1" as="geometry" />
        </mxCell>
      </root>
    </mxGraphModel>
  </diagram>
</mxfile>
